<?xml version="1.0" encoding="UTF-8" standalone="no"?>
<!DOCTYPE svg PUBLIC "-//W3C//DTD SVG 1.1//EN"
 "http://www.w3.org/Graphics/SVG/1.1/DTD/svg11.dtd">
<!-- Generated by graphviz version 2.38.0 (20140413.2041)
 -->
<!-- Title: %3 Pages: 1 -->
<svg width="603pt" height="2960pt"
 viewBox="0.00 0.00 602.95 2960.00" xmlns="http://www.w3.org/2000/svg" xmlns:xlink="http://www.w3.org/1999/xlink">
<g id="graph0" class="graph" transform="scale(1 1) rotate(0) translate(4 2956)">
<title>%3</title>
<polygon fill="white" stroke="none" points="-4,4 -4,-2956 598.95,-2956 598.95,4 -4,4"/>
<!-- 182.150.11.125 -->
<g id="node1" class="node"><title>182.150.11.125</title>
<ellipse fill="none" stroke="black" cx="89.692" cy="-99" rx="83.6854" ry="18"/>
<text text-anchor="middle" x="89.692" y="-95.3" font-family="Times,serif" font-size="14.00">182.150.11.125</text>
</g>
<!-- www.guahao.com -->
<g id="node2" class="node"><title>www.guahao.com</title>
<ellipse fill="none" stroke="black" cx="405.167" cy="-180" rx="92.0841" ry="18"/>
<text text-anchor="middle" x="405.167" y="-176.3" font-family="Times,serif" font-size="14.00">www.guahao.com</text>
</g>
<!-- 182.150.11.125&#45;&gt;www.guahao.com -->
<g id="edge1" class="edge"><title>182.150.11.125&#45;&gt;www.guahao.com</title>
<path fill="none" stroke="black" d="M122.637,-115.66C147.326,-127.832 182.693,-143.763 215.384,-153 245.584,-161.533 279.3,-167.448 309.789,-171.515"/>
<polygon fill="black" stroke="black" points="309.631,-175.023 319.995,-172.824 310.522,-168.08 309.631,-175.023"/>
</g>
<!-- hd.guahao.com -->
<g id="node37" class="node"><title>hd.guahao.com</title>
<ellipse fill="none" stroke="black" cx="405.167" cy="-126" rx="81.4863" ry="18"/>
<text text-anchor="middle" x="405.167" y="-122.3" font-family="Times,serif" font-size="14.00">hd.guahao.com</text>
</g>
<!-- 182.150.11.125&#45;&gt;hd.guahao.com -->
<g id="edge2" class="edge"><title>182.150.11.125&#45;&gt;hd.guahao.com</title>
<path fill="none" stroke="black" d="M167.778,-105.64C213.632,-109.589 271.873,-114.605 319.071,-118.671"/>
<polygon fill="black" stroke="black" points="319.01,-122.178 329.273,-119.549 319.61,-115.204 319.01,-122.178"/>
</g>
<!-- sns&#45;web&#45;api.guahao.com -->
<g id="node47" class="node"><title>sns&#45;web&#45;api.guahao.com</title>
<ellipse fill="none" stroke="black" cx="405.167" cy="-72" rx="124.278" ry="18"/>
<text text-anchor="middle" x="405.167" y="-68.3" font-family="Times,serif" font-size="14.00">sns&#45;web&#45;api.guahao.com</text>
</g>
<!-- 182.150.11.125&#45;&gt;sns&#45;web&#45;api.guahao.com -->
<g id="edge3" class="edge"><title>182.150.11.125&#45;&gt;sns&#45;web&#45;api.guahao.com</title>
<path fill="none" stroke="black" d="M167.778,-92.3605C203.96,-89.2441 247.854,-85.4635 287.95,-82.01"/>
<polygon fill="black" stroke="black" points="288.392,-85.4849 298.055,-81.1396 287.791,-78.5107 288.392,-85.4849"/>
</g>
<!-- chongqing.guahao.com -->
<g id="node66" class="node"><title>chongqing.guahao.com</title>
<ellipse fill="none" stroke="black" cx="405.167" cy="-18" rx="118.079" ry="18"/>
<text text-anchor="middle" x="405.167" y="-14.3" font-family="Times,serif" font-size="14.00">chongqing.guahao.com</text>
</g>
<!-- 182.150.11.125&#45;&gt;chongqing.guahao.com -->
<g id="edge4" class="edge"><title>182.150.11.125&#45;&gt;chongqing.guahao.com</title>
<path fill="none" stroke="black" d="M122.637,-82.34C147.326,-70.1681 182.693,-54.2368 215.384,-45 240.277,-37.9666 267.559,-32.7115 293.454,-28.8042"/>
<polygon fill="black" stroke="black" points="294.29,-32.2195 303.683,-27.3185 293.284,-25.2922 294.29,-32.2195"/>
</g>
<!-- 110.185.114.202 -->
<g id="node3" class="node"><title>110.185.114.202</title>
<ellipse fill="none" stroke="black" cx="89.692" cy="-450" rx="89.8845" ry="18"/>
<text text-anchor="middle" x="89.692" y="-446.3" font-family="Times,serif" font-size="14.00">110.185.114.202</text>
</g>
<!-- static.guahao.cn -->
<g id="node4" class="node"><title>static.guahao.cn</title>
<ellipse fill="none" stroke="black" cx="405.167" cy="-666" rx="87.9851" ry="18"/>
<text text-anchor="middle" x="405.167" y="-662.3" font-family="Times,serif" font-size="14.00">static.guahao.cn</text>
</g>
<!-- 110.185.114.202&#45;&gt;static.guahao.cn -->
<g id="edge5" class="edge"><title>110.185.114.202&#45;&gt;static.guahao.cn</title>
<path fill="none" stroke="black" d="M96.7626,-468C110.807,-506.605 149.473,-597.232 215.384,-639 242.638,-656.271 276.499,-664.305 307.988,-667.632"/>
<polygon fill="black" stroke="black" points="307.841,-671.133 318.117,-668.553 308.475,-664.162 307.841,-671.133"/>
</g>
<!-- kano.guahao.cn -->
<g id="node7" class="node"><title>kano.guahao.cn</title>
<ellipse fill="none" stroke="black" cx="405.167" cy="-612" rx="83.6854" ry="18"/>
<text text-anchor="middle" x="405.167" y="-608.3" font-family="Times,serif" font-size="14.00">kano.guahao.cn</text>
</g>
<!-- 110.185.114.202&#45;&gt;kano.guahao.cn -->
<g id="edge6" class="edge"><title>110.185.114.202&#45;&gt;kano.guahao.cn</title>
<path fill="none" stroke="black" d="M101.472,-468.09C120.376,-498.013 162.562,-557.26 215.384,-585 244.347,-600.21 279.075,-607.701 310.803,-611.166"/>
<polygon fill="black" stroke="black" points="310.697,-614.672 320.988,-612.154 311.373,-607.704 310.697,-614.672"/>
</g>
<!-- api&#45;gateway.guahao.com -->
<g id="node21" class="node"><title>api&#45;gateway.guahao.com</title>
<ellipse fill="none" stroke="black" cx="405.167" cy="-558" rx="124.278" ry="18"/>
<text text-anchor="middle" x="405.167" y="-554.3" font-family="Times,serif" font-size="14.00">api&#45;gateway.guahao.com</text>
</g>
<!-- 110.185.114.202&#45;&gt;api&#45;gateway.guahao.com -->
<g id="edge7" class="edge"><title>110.185.114.202&#45;&gt;api&#45;gateway.guahao.com</title>
<path fill="none" stroke="black" d="M111.642,-467.755C135.234,-486.71 175.507,-516.032 215.384,-531 236.58,-538.956 259.922,-544.588 282.751,-548.57"/>
<polygon fill="black" stroke="black" points="282.408,-552.06 292.844,-550.232 283.545,-545.153 282.408,-552.06"/>
</g>
<!-- img.guahao.com -->
<g id="node36" class="node"><title>img.guahao.com</title>
<ellipse fill="none" stroke="black" cx="405.167" cy="-504" rx="87.1846" ry="18"/>
<text text-anchor="middle" x="405.167" y="-500.3" font-family="Times,serif" font-size="14.00">img.guahao.com</text>
</g>
<!-- 110.185.114.202&#45;&gt;img.guahao.com -->
<g id="edge8" class="edge"><title>110.185.114.202&#45;&gt;img.guahao.com</title>
<path fill="none" stroke="black" d="M149.196,-463.568C170.026,-468.159 193.692,-473.105 215.384,-477 249.641,-483.151 287.598,-488.803 320.439,-493.329"/>
<polygon fill="black" stroke="black" points="320.075,-496.811 330.457,-494.696 321.022,-489.876 320.075,-496.811"/>
</g>
<!-- trackh5.guahao.cn -->
<g id="node39" class="node"><title>trackh5.guahao.cn</title>
<ellipse fill="none" stroke="black" cx="405.167" cy="-450" rx="98.2828" ry="18"/>
<text text-anchor="middle" x="405.167" y="-446.3" font-family="Times,serif" font-size="14.00">trackh5.guahao.cn</text>
</g>
<!-- 110.185.114.202&#45;&gt;trackh5.guahao.cn -->
<g id="edge9" class="edge"><title>110.185.114.202&#45;&gt;trackh5.guahao.cn</title>
<path fill="none" stroke="black" d="M179.683,-450C216.155,-450 258.688,-450 296.863,-450"/>
<polygon fill="black" stroke="black" points="296.985,-453.5 306.985,-450 296.985,-446.5 296.985,-453.5"/>
</g>
<!-- kano&#45;sns.guahao.cn -->
<g id="node43" class="node"><title>kano&#45;sns.guahao.cn</title>
<ellipse fill="none" stroke="black" cx="405.167" cy="-396" rx="102.882" ry="18"/>
<text text-anchor="middle" x="405.167" y="-392.3" font-family="Times,serif" font-size="14.00">kano&#45;sns.guahao.cn</text>
</g>
<!-- 110.185.114.202&#45;&gt;kano&#45;sns.guahao.cn -->
<g id="edge10" class="edge"><title>110.185.114.202&#45;&gt;kano&#45;sns.guahao.cn</title>
<path fill="none" stroke="black" d="M149.196,-436.432C170.026,-431.841 193.692,-426.895 215.384,-423 246.565,-417.402 280.81,-412.216 311.473,-407.917"/>
<polygon fill="black" stroke="black" points="312.301,-411.336 321.725,-406.494 311.338,-404.403 312.301,-411.336"/>
</g>
<!-- kano&#45;control.guahao.cn -->
<g id="node61" class="node"><title>kano&#45;control.guahao.cn</title>
<ellipse fill="none" stroke="black" cx="405.167" cy="-342" rx="120.479" ry="18"/>
<text text-anchor="middle" x="405.167" y="-338.3" font-family="Times,serif" font-size="14.00">kano&#45;control.guahao.cn</text>
</g>
<!-- 110.185.114.202&#45;&gt;kano&#45;control.guahao.cn -->
<g id="edge11" class="edge"><title>110.185.114.202&#45;&gt;kano&#45;control.guahao.cn</title>
<path fill="none" stroke="black" d="M111.642,-432.245C135.234,-413.29 175.507,-383.968 215.384,-369 237.353,-360.754 261.628,-355.004 285.247,-351.001"/>
<polygon fill="black" stroke="black" points="285.999,-354.425 295.321,-349.39 284.894,-347.513 285.999,-354.425"/>
</g>
<!-- nanjing.guahao.com -->
<g id="node67" class="node"><title>nanjing.guahao.com</title>
<ellipse fill="none" stroke="black" cx="405.167" cy="-288" rx="104.782" ry="18"/>
<text text-anchor="middle" x="405.167" y="-284.3" font-family="Times,serif" font-size="14.00">nanjing.guahao.com</text>
</g>
<!-- 110.185.114.202&#45;&gt;nanjing.guahao.com -->
<g id="edge12" class="edge"><title>110.185.114.202&#45;&gt;nanjing.guahao.com</title>
<path fill="none" stroke="black" d="M101.472,-431.91C120.376,-401.987 162.562,-342.74 215.384,-315 238.285,-302.973 264.792,-295.773 290.57,-291.573"/>
<polygon fill="black" stroke="black" points="291.41,-294.986 300.786,-290.054 290.381,-288.062 291.41,-294.986"/>
</g>
<!-- welife.guahao.com -->
<g id="node72" class="node"><title>welife.guahao.com</title>
<ellipse fill="none" stroke="black" cx="405.167" cy="-234" rx="97.4827" ry="18"/>
<text text-anchor="middle" x="405.167" y="-230.3" font-family="Times,serif" font-size="14.00">welife.guahao.com</text>
</g>
<!-- 110.185.114.202&#45;&gt;welife.guahao.com -->
<g id="edge13" class="edge"><title>110.185.114.202&#45;&gt;welife.guahao.com</title>
<path fill="none" stroke="black" d="M96.7626,-432C110.807,-393.395 149.473,-302.768 215.384,-261 239.775,-245.543 269.459,-237.485 297.997,-233.577"/>
<polygon fill="black" stroke="black" points="298.526,-237.039 308.034,-232.363 297.686,-230.09 298.526,-237.039"/>
</g>
<!-- 110.185.117.237 -->
<g id="node5" class="node"><title>110.185.117.237</title>
<ellipse fill="none" stroke="black" cx="89.692" cy="-1044" rx="89.8845" ry="18"/>
<text text-anchor="middle" x="89.692" y="-1040.3" font-family="Times,serif" font-size="14.00">110.185.117.237</text>
</g>
<!-- img.guahao.cn -->
<g id="node6" class="node"><title>img.guahao.cn</title>
<ellipse fill="none" stroke="black" cx="405.167" cy="-1368" rx="79.0865" ry="18"/>
<text text-anchor="middle" x="405.167" y="-1364.3" font-family="Times,serif" font-size="14.00">img.guahao.cn</text>
</g>
<!-- 110.185.117.237&#45;&gt;img.guahao.cn -->
<g id="edge14" class="edge"><title>110.185.117.237&#45;&gt;img.guahao.cn</title>
<path fill="none" stroke="black" d="M92.3207,-1062.37C98.0765,-1115.35 122.443,-1269.21 215.384,-1341 244.598,-1363.56 284.174,-1371.6 319.545,-1373.47"/>
<polygon fill="black" stroke="black" points="319.759,-1376.98 329.882,-1373.86 320.019,-1369.99 319.759,-1376.98"/>
</g>
<!-- trackweb.guahao.cn -->
<g id="node16" class="node"><title>trackweb.guahao.cn</title>
<ellipse fill="none" stroke="black" cx="405.167" cy="-1314" rx="105.082" ry="18"/>
<text text-anchor="middle" x="405.167" y="-1310.3" font-family="Times,serif" font-size="14.00">trackweb.guahao.cn</text>
</g>
<!-- 110.185.117.237&#45;&gt;trackweb.guahao.cn -->
<g id="edge15" class="edge"><title>110.185.117.237&#45;&gt;trackweb.guahao.cn</title>
<path fill="none" stroke="black" d="M94.0719,-1062.03C103.732,-1108.1 136.042,-1230.43 215.384,-1287 237.137,-1302.51 263.933,-1310.92 290.431,-1315.18"/>
<polygon fill="black" stroke="black" points="290.17,-1318.67 300.561,-1316.61 291.149,-1311.74 290.17,-1318.67"/>
</g>
<!-- service.guahao.com -->
<g id="node26" class="node"><title>service.guahao.com</title>
<ellipse fill="none" stroke="black" cx="405.167" cy="-1260" rx="103.182" ry="18"/>
<text text-anchor="middle" x="405.167" y="-1256.3" font-family="Times,serif" font-size="14.00">service.guahao.com</text>
</g>
<!-- 110.185.117.237&#45;&gt;service.guahao.com -->
<g id="edge16" class="edge"><title>110.185.117.237&#45;&gt;service.guahao.com</title>
<path fill="none" stroke="black" d="M96.7626,-1062C110.807,-1100.6 149.473,-1191.23 215.384,-1233 237.95,-1247.3 265.047,-1255.27 291.575,-1259.47"/>
<polygon fill="black" stroke="black" points="291.312,-1262.97 301.704,-1260.91 292.293,-1256.04 291.312,-1262.97"/>
</g>
<!-- track.guahao.cn -->
<g id="node31" class="node"><title>track.guahao.cn</title>
<ellipse fill="none" stroke="black" cx="405.167" cy="-1206" rx="86.3847" ry="18"/>
<text text-anchor="middle" x="405.167" y="-1202.3" font-family="Times,serif" font-size="14.00">track.guahao.cn</text>
</g>
<!-- 110.185.117.237&#45;&gt;track.guahao.cn -->
<g id="edge17" class="edge"><title>110.185.117.237&#45;&gt;track.guahao.cn</title>
<path fill="none" stroke="black" d="M101.472,-1062.09C120.376,-1092.01 162.562,-1151.26 215.384,-1179 243.685,-1193.86 277.492,-1201.35 308.626,-1204.92"/>
<polygon fill="black" stroke="black" points="308.325,-1208.41 318.63,-1205.95 309.038,-1201.45 308.325,-1208.41"/>
</g>
<!-- doctor.guahao.com -->
<g id="node35" class="node"><title>doctor.guahao.com</title>
<ellipse fill="none" stroke="black" cx="405.167" cy="-1152" rx="98.5829" ry="18"/>
<text text-anchor="middle" x="405.167" y="-1148.3" font-family="Times,serif" font-size="14.00">doctor.guahao.com</text>
</g>
<!-- 110.185.117.237&#45;&gt;doctor.guahao.com -->
<g id="edge18" class="edge"><title>110.185.117.237&#45;&gt;doctor.guahao.com</title>
<path fill="none" stroke="black" d="M111.642,-1061.75C135.234,-1080.71 175.507,-1110.03 215.384,-1125 242.024,-1135 272.055,-1141.33 300.197,-1145.32"/>
<polygon fill="black" stroke="black" points="300.095,-1148.84 310.47,-1146.69 301.02,-1141.9 300.095,-1148.84"/>
</g>
<!-- kano.guahao.com -->
<g id="node38" class="node"><title>kano.guahao.com</title>
<ellipse fill="none" stroke="black" cx="405.167" cy="-1098" rx="92.0841" ry="18"/>
<text text-anchor="middle" x="405.167" y="-1094.3" font-family="Times,serif" font-size="14.00">kano.guahao.com</text>
</g>
<!-- 110.185.117.237&#45;&gt;kano.guahao.com -->
<g id="edge19" class="edge"><title>110.185.117.237&#45;&gt;kano.guahao.com</title>
<path fill="none" stroke="black" d="M149.196,-1057.57C170.026,-1062.16 193.692,-1067.11 215.384,-1071 248.465,-1076.94 284.995,-1082.41 317.036,-1086.86"/>
<polygon fill="black" stroke="black" points="316.889,-1090.37 327.272,-1088.26 317.841,-1083.44 316.889,-1090.37"/>
</g>
<!-- h2img.guahao.com -->
<g id="node40" class="node"><title>h2img.guahao.com</title>
<ellipse fill="none" stroke="black" cx="405.167" cy="-1044" rx="98.5829" ry="18"/>
<text text-anchor="middle" x="405.167" y="-1040.3" font-family="Times,serif" font-size="14.00">h2img.guahao.com</text>
</g>
<!-- 110.185.117.237&#45;&gt;h2img.guahao.com -->
<g id="edge20" class="edge"><title>110.185.117.237&#45;&gt;h2img.guahao.com</title>
<path fill="none" stroke="black" d="M179.683,-1044C215.906,-1044 258.107,-1044 296.079,-1044"/>
<polygon fill="black" stroke="black" points="296.15,-1047.5 306.15,-1044 296.15,-1040.5 296.15,-1047.5"/>
</g>
<!-- wy.guahao.com -->
<g id="node41" class="node"><title>wy.guahao.com</title>
<ellipse fill="none" stroke="black" cx="405.167" cy="-990" rx="81.4863" ry="18"/>
<text text-anchor="middle" x="405.167" y="-986.3" font-family="Times,serif" font-size="14.00">wy.guahao.com</text>
</g>
<!-- 110.185.117.237&#45;&gt;wy.guahao.com -->
<g id="edge21" class="edge"><title>110.185.117.237&#45;&gt;wy.guahao.com</title>
<path fill="none" stroke="black" d="M149.196,-1030.43C170.026,-1025.84 193.692,-1020.89 215.384,-1017 250.823,-1010.64 290.22,-1004.81 323.817,-1000.21"/>
<polygon fill="black" stroke="black" points="324.608,-1003.63 334.047,-998.819 323.667,-996.695 324.608,-1003.63"/>
</g>
<!-- bbs.guahao.com -->
<g id="node42" class="node"><title>bbs.guahao.com</title>
<ellipse fill="none" stroke="black" cx="405.167" cy="-936" rx="86.3847" ry="18"/>
<text text-anchor="middle" x="405.167" y="-932.3" font-family="Times,serif" font-size="14.00">bbs.guahao.com</text>
</g>
<!-- 110.185.117.237&#45;&gt;bbs.guahao.com -->
<g id="edge22" class="edge"><title>110.185.117.237&#45;&gt;bbs.guahao.com</title>
<path fill="none" stroke="black" d="M111.642,-1026.25C135.234,-1007.29 175.507,-977.968 215.384,-963 245.452,-951.714 279.838,-945.105 310.953,-941.248"/>
<polygon fill="black" stroke="black" points="311.401,-944.719 320.931,-940.09 310.594,-937.766 311.401,-944.719"/>
</g>
<!-- sns.guahao.com -->
<g id="node46" class="node"><title>sns.guahao.com</title>
<ellipse fill="none" stroke="black" cx="405.167" cy="-882" rx="85.2851" ry="18"/>
<text text-anchor="middle" x="405.167" y="-878.3" font-family="Times,serif" font-size="14.00">sns.guahao.com</text>
</g>
<!-- 110.185.117.237&#45;&gt;sns.guahao.com -->
<g id="edge23" class="edge"><title>110.185.117.237&#45;&gt;sns.guahao.com</title>
<path fill="none" stroke="black" d="M101.472,-1025.91C120.376,-995.987 162.562,-936.74 215.384,-909 243.95,-893.999 278.124,-886.506 309.498,-882.979"/>
<polygon fill="black" stroke="black" points="309.974,-886.449 319.575,-881.969 309.276,-879.484 309.974,-886.449"/>
</g>
<!-- guangzhou.guahao.com -->
<g id="node68" class="node"><title>guangzhou.guahao.com</title>
<ellipse fill="none" stroke="black" cx="405.167" cy="-828" rx="120.479" ry="18"/>
<text text-anchor="middle" x="405.167" y="-824.3" font-family="Times,serif" font-size="14.00">guangzhou.guahao.com</text>
</g>
<!-- 110.185.117.237&#45;&gt;guangzhou.guahao.com -->
<g id="edge24" class="edge"><title>110.185.117.237&#45;&gt;guangzhou.guahao.com</title>
<path fill="none" stroke="black" d="M96.7626,-1026C110.807,-987.395 149.473,-896.768 215.384,-855 233.25,-843.679 253.954,-836.326 274.969,-831.667"/>
<polygon fill="black" stroke="black" points="275.856,-835.059 284.967,-829.651 274.472,-828.197 275.856,-835.059"/>
</g>
<!-- wuhan.guahao.com -->
<g id="node69" class="node"><title>wuhan.guahao.com</title>
<ellipse fill="none" stroke="black" cx="405.167" cy="-774" rx="100.983" ry="18"/>
<text text-anchor="middle" x="405.167" y="-770.3" font-family="Times,serif" font-size="14.00">wuhan.guahao.com</text>
</g>
<!-- 110.185.117.237&#45;&gt;wuhan.guahao.com -->
<g id="edge25" class="edge"><title>110.185.117.237&#45;&gt;wuhan.guahao.com</title>
<path fill="none" stroke="black" d="M94.0719,-1025.97C103.732,-979.903 136.042,-857.568 215.384,-801 238.655,-784.409 267.697,-775.936 295.972,-771.994"/>
<polygon fill="black" stroke="black" points="296.427,-775.465 305.931,-770.783 295.581,-768.516 296.427,-775.465"/>
</g>
<!-- changzhou.guahao.com -->
<g id="node70" class="node"><title>changzhou.guahao.com</title>
<ellipse fill="none" stroke="black" cx="405.167" cy="-720" rx="120.479" ry="18"/>
<text text-anchor="middle" x="405.167" y="-716.3" font-family="Times,serif" font-size="14.00">changzhou.guahao.com</text>
</g>
<!-- 110.185.117.237&#45;&gt;changzhou.guahao.com -->
<g id="edge26" class="edge"><title>110.185.117.237&#45;&gt;changzhou.guahao.com</title>
<path fill="none" stroke="black" d="M92.3207,-1025.63C98.0765,-972.654 122.443,-818.787 215.384,-747 232.653,-733.661 253.543,-725.401 275.044,-720.489"/>
<polygon fill="black" stroke="black" points="275.86,-723.895 284.955,-718.461 274.457,-717.037 275.86,-723.895"/>
</g>
<!-- 218.88.212.31 -->
<g id="node8" class="node"><title>218.88.212.31</title>
<ellipse fill="none" stroke="black" cx="89.692" cy="-1449" rx="77.9862" ry="18"/>
<text text-anchor="middle" x="89.692" y="-1445.3" font-family="Times,serif" font-size="14.00">218.88.212.31</text>
</g>
<!-- zz.bdstatic.com -->
<g id="node9" class="node"><title>zz.bdstatic.com</title>
<ellipse fill="none" stroke="black" cx="405.167" cy="-1476" rx="83.6854" ry="18"/>
<text text-anchor="middle" x="405.167" y="-1472.3" font-family="Times,serif" font-size="14.00">zz.bdstatic.com</text>
</g>
<!-- 218.88.212.31&#45;&gt;zz.bdstatic.com -->
<g id="edge27" class="edge"><title>218.88.212.31&#45;&gt;zz.bdstatic.com</title>
<path fill="none" stroke="black" d="M163.003,-1455.23C208.834,-1459.18 268.393,-1464.31 316.854,-1468.48"/>
<polygon fill="black" stroke="black" points="316.754,-1471.98 327.018,-1469.36 317.355,-1465.01 316.754,-1471.98"/>
</g>
<!-- gss0.bdstatic.com -->
<g id="node82" class="node"><title>gss0.bdstatic.com</title>
<ellipse fill="none" stroke="black" cx="405.167" cy="-1422" rx="95.5831" ry="18"/>
<text text-anchor="middle" x="405.167" y="-1418.3" font-family="Times,serif" font-size="14.00">gss0.bdstatic.com</text>
</g>
<!-- 218.88.212.31&#45;&gt;gss0.bdstatic.com -->
<g id="edge28" class="edge"><title>218.88.212.31&#45;&gt;gss0.bdstatic.com</title>
<path fill="none" stroke="black" d="M163.003,-1442.77C206.043,-1439.06 261.189,-1434.31 307.882,-1430.29"/>
<polygon fill="black" stroke="black" points="308.353,-1433.77 318.016,-1429.42 307.752,-1426.79 308.353,-1433.77"/>
</g>
<!-- 220.167.13.249 -->
<g id="node10" class="node"><title>220.167.13.249</title>
<ellipse fill="none" stroke="black" cx="89.692" cy="-1530" rx="83.6854" ry="18"/>
<text text-anchor="middle" x="89.692" y="-1526.3" font-family="Times,serif" font-size="14.00">220.167.13.249</text>
</g>
<!-- static.fraudmetrix.cn -->
<g id="node11" class="node"><title>static.fraudmetrix.cn</title>
<ellipse fill="none" stroke="black" cx="405.167" cy="-1530" rx="109.681" ry="18"/>
<text text-anchor="middle" x="405.167" y="-1526.3" font-family="Times,serif" font-size="14.00">static.fraudmetrix.cn</text>
</g>
<!-- 220.167.13.249&#45;&gt;static.fraudmetrix.cn -->
<g id="edge29" class="edge"><title>220.167.13.249&#45;&gt;static.fraudmetrix.cn</title>
<path fill="none" stroke="black" d="M173.875,-1530C207.863,-1530 247.819,-1530 284.822,-1530"/>
<polygon fill="black" stroke="black" points="285.173,-1533.5 295.173,-1530 285.173,-1526.5 285.173,-1533.5"/>
</g>
<!-- 47.101.54.163 -->
<g id="node12" class="node"><title>47.101.54.163</title>
<ellipse fill="none" stroke="black" cx="89.692" cy="-1584" rx="77.9862" ry="18"/>
<text text-anchor="middle" x="89.692" y="-1580.3" font-family="Times,serif" font-size="14.00">47.101.54.163</text>
</g>
<!-- fp.fraudmetrix.cn -->
<g id="node13" class="node"><title>fp.fraudmetrix.cn</title>
<ellipse fill="none" stroke="black" cx="405.167" cy="-1584" rx="92.8835" ry="18"/>
<text text-anchor="middle" x="405.167" y="-1580.3" font-family="Times,serif" font-size="14.00">fp.fraudmetrix.cn</text>
</g>
<!-- 47.101.54.163&#45;&gt;fp.fraudmetrix.cn -->
<g id="edge30" class="edge"><title>47.101.54.163&#45;&gt;fp.fraudmetrix.cn</title>
<path fill="none" stroke="black" d="M167.778,-1584C208.226,-1584 258.313,-1584 301.956,-1584"/>
<polygon fill="black" stroke="black" points="302.03,-1587.5 312.03,-1584 302.03,-1580.5 302.03,-1587.5"/>
</g>
<!-- 220.181.7.190 -->
<g id="node14" class="node"><title>220.181.7.190</title>
<ellipse fill="none" stroke="black" cx="89.692" cy="-1638" rx="77.9862" ry="18"/>
<text text-anchor="middle" x="89.692" y="-1634.3" font-family="Times,serif" font-size="14.00">220.181.7.190</text>
</g>
<!-- hm.baidu.com -->
<g id="node15" class="node"><title>hm.baidu.com</title>
<ellipse fill="none" stroke="black" cx="405.167" cy="-1638" rx="76.8869" ry="18"/>
<text text-anchor="middle" x="405.167" y="-1634.3" font-family="Times,serif" font-size="14.00">hm.baidu.com</text>
</g>
<!-- 220.181.7.190&#45;&gt;hm.baidu.com -->
<g id="edge31" class="edge"><title>220.181.7.190&#45;&gt;hm.baidu.com</title>
<path fill="none" stroke="black" d="M167.778,-1638C213.379,-1638 271.23,-1638 318.288,-1638"/>
<polygon fill="black" stroke="black" points="318.463,-1641.5 328.463,-1638 318.463,-1634.5 318.463,-1641.5"/>
</g>
<!-- 180.97.33.107 -->
<g id="node17" class="node"><title>180.97.33.107</title>
<ellipse fill="none" stroke="black" cx="89.692" cy="-1719" rx="77.9862" ry="18"/>
<text text-anchor="middle" x="89.692" y="-1715.3" font-family="Times,serif" font-size="14.00">180.97.33.107</text>
</g>
<!-- sp0.baidu.com -->
<g id="node18" class="node"><title>sp0.baidu.com</title>
<ellipse fill="none" stroke="black" cx="405.167" cy="-1746" rx="78.7863" ry="18"/>
<text text-anchor="middle" x="405.167" y="-1742.3" font-family="Times,serif" font-size="14.00">sp0.baidu.com</text>
</g>
<!-- 180.97.33.107&#45;&gt;sp0.baidu.com -->
<g id="edge32" class="edge"><title>180.97.33.107&#45;&gt;sp0.baidu.com</title>
<path fill="none" stroke="black" d="M163.003,-1725.23C210.283,-1729.3 272.173,-1734.63 321.417,-1738.87"/>
<polygon fill="black" stroke="black" points="321.142,-1742.36 331.406,-1739.73 321.743,-1735.39 321.142,-1742.36"/>
</g>
<!-- www.baidu.com -->
<g id="node34" class="node"><title>www.baidu.com</title>
<ellipse fill="none" stroke="black" cx="405.167" cy="-1692" rx="84.485" ry="18"/>
<text text-anchor="middle" x="405.167" y="-1688.3" font-family="Times,serif" font-size="14.00">www.baidu.com</text>
</g>
<!-- 180.97.33.107&#45;&gt;www.baidu.com -->
<g id="edge33" class="edge"><title>180.97.33.107&#45;&gt;www.baidu.com</title>
<path fill="none" stroke="black" d="M163.003,-1712.77C208.665,-1708.84 267.954,-1703.73 316.318,-1699.57"/>
<polygon fill="black" stroke="black" points="316.801,-1703.04 326.464,-1698.69 316.2,-1696.06 316.801,-1703.04"/>
</g>
<!-- 106.75.211.178 -->
<g id="node19" class="node"><title>106.75.211.178</title>
<ellipse fill="none" stroke="black" cx="89.692" cy="-1800" rx="83.6854" ry="18"/>
<text text-anchor="middle" x="89.692" y="-1796.3" font-family="Times,serif" font-size="14.00">106.75.211.178</text>
</g>
<!-- fp.tongdun.net -->
<g id="node20" class="node"><title>fp.tongdun.net</title>
<ellipse fill="none" stroke="black" cx="405.167" cy="-1800" rx="79.0865" ry="18"/>
<text text-anchor="middle" x="405.167" y="-1796.3" font-family="Times,serif" font-size="14.00">fp.tongdun.net</text>
</g>
<!-- 106.75.211.178&#45;&gt;fp.tongdun.net -->
<g id="edge34" class="edge"><title>106.75.211.178&#45;&gt;fp.tongdun.net</title>
<path fill="none" stroke="black" d="M173.875,-1800C217.542,-1800 271.061,-1800 315.512,-1800"/>
<polygon fill="black" stroke="black" points="315.725,-1803.5 325.725,-1800 315.725,-1796.5 315.725,-1803.5"/>
</g>
<!-- 203.107.32.16 -->
<g id="node22" class="node"><title>203.107.32.16</title>
<ellipse fill="none" stroke="black" cx="89.692" cy="-1854" rx="77.9862" ry="18"/>
<text text-anchor="middle" x="89.692" y="-1850.3" font-family="Times,serif" font-size="14.00">203.107.32.16</text>
</g>
<!-- api.geetest.com -->
<g id="node23" class="node"><title>api.geetest.com</title>
<ellipse fill="none" stroke="black" cx="405.167" cy="-1854" rx="85.2851" ry="18"/>
<text text-anchor="middle" x="405.167" y="-1850.3" font-family="Times,serif" font-size="14.00">api.geetest.com</text>
</g>
<!-- 203.107.32.16&#45;&gt;api.geetest.com -->
<g id="edge35" class="edge"><title>203.107.32.16&#45;&gt;api.geetest.com</title>
<path fill="none" stroke="black" d="M167.778,-1854C210.671,-1854 264.402,-1854 309.795,-1854"/>
<polygon fill="black" stroke="black" points="309.943,-1857.5 319.943,-1854 309.943,-1850.5 309.943,-1857.5"/>
</g>
<!-- 118.112.225.35 -->
<g id="node24" class="node"><title>118.112.225.35</title>
<ellipse fill="none" stroke="black" cx="89.692" cy="-1908" rx="83.6854" ry="18"/>
<text text-anchor="middle" x="89.692" y="-1904.3" font-family="Times,serif" font-size="14.00">118.112.225.35</text>
</g>
<!-- static.geetest.com -->
<g id="node25" class="node"><title>static.geetest.com</title>
<ellipse fill="none" stroke="black" cx="405.167" cy="-1908" rx="96.6831" ry="18"/>
<text text-anchor="middle" x="405.167" y="-1904.3" font-family="Times,serif" font-size="14.00">static.geetest.com</text>
</g>
<!-- 118.112.225.35&#45;&gt;static.geetest.com -->
<g id="edge36" class="edge"><title>118.112.225.35&#45;&gt;static.geetest.com</title>
<path fill="none" stroke="black" d="M173.875,-1908C211.916,-1908 257.433,-1908 297.918,-1908"/>
<polygon fill="black" stroke="black" points="298.095,-1911.5 308.095,-1908 298.095,-1904.5 298.095,-1911.5"/>
</g>
<!-- 115.238.25.9 -->
<g id="node27" class="node"><title>115.238.25.9</title>
<ellipse fill="none" stroke="black" cx="89.692" cy="-1962" rx="72.2875" ry="18"/>
<text text-anchor="middle" x="89.692" y="-1958.3" font-family="Times,serif" font-size="14.00">115.238.25.9</text>
</g>
<!-- sentry.guahao.cn -->
<g id="node28" class="node"><title>sentry.guahao.cn</title>
<ellipse fill="none" stroke="black" cx="405.167" cy="-1962" rx="89.8845" ry="18"/>
<text text-anchor="middle" x="405.167" y="-1958.3" font-family="Times,serif" font-size="14.00">sentry.guahao.cn</text>
</g>
<!-- 115.238.25.9&#45;&gt;sentry.guahao.cn -->
<g id="edge37" class="edge"><title>115.238.25.9&#45;&gt;sentry.guahao.cn</title>
<path fill="none" stroke="black" d="M162.217,-1962C204.556,-1962 258.815,-1962 305.217,-1962"/>
<polygon fill="black" stroke="black" points="305.296,-1965.5 315.296,-1962 305.296,-1958.5 305.296,-1965.5"/>
</g>
<!-- 47.95.165.133 -->
<g id="node29" class="node"><title>47.95.165.133</title>
<ellipse fill="none" stroke="black" cx="89.692" cy="-2016" rx="77.9862" ry="18"/>
<text text-anchor="middle" x="89.692" y="-2012.3" font-family="Times,serif" font-size="14.00">47.95.165.133</text>
</g>
<!-- monitor.geetest.com -->
<g id="node30" class="node"><title>monitor.geetest.com</title>
<ellipse fill="none" stroke="black" cx="405.167" cy="-2016" rx="106.681" ry="18"/>
<text text-anchor="middle" x="405.167" y="-2012.3" font-family="Times,serif" font-size="14.00">monitor.geetest.com</text>
</g>
<!-- 47.95.165.133&#45;&gt;monitor.geetest.com -->
<g id="edge38" class="edge"><title>47.95.165.133&#45;&gt;monitor.geetest.com</title>
<path fill="none" stroke="black" d="M167.778,-2016C204.043,-2016 248.057,-2016 288.227,-2016"/>
<polygon fill="black" stroke="black" points="288.35,-2019.5 298.35,-2016 288.35,-2012.5 288.35,-2019.5"/>
</g>
<!-- 118.123.164.242 -->
<g id="node32" class="node"><title>118.123.164.242</title>
<ellipse fill="none" stroke="black" cx="89.692" cy="-2070" rx="89.8845" ry="18"/>
<text text-anchor="middle" x="89.692" y="-2066.3" font-family="Times,serif" font-size="14.00">118.123.164.242</text>
</g>
<!-- dn&#45;staticdown.qbox.me -->
<g id="node33" class="node"><title>dn&#45;staticdown.qbox.me</title>
<ellipse fill="none" stroke="black" cx="405.167" cy="-2070" rx="118.879" ry="18"/>
<text text-anchor="middle" x="405.167" y="-2066.3" font-family="Times,serif" font-size="14.00">dn&#45;staticdown.qbox.me</text>
</g>
<!-- 118.123.164.242&#45;&gt;dn&#45;staticdown.qbox.me -->
<g id="edge39" class="edge"><title>118.123.164.242&#45;&gt;dn&#45;staticdown.qbox.me</title>
<path fill="none" stroke="black" d="M179.683,-2070C209.491,-2070 243.348,-2070 275.564,-2070"/>
<polygon fill="black" stroke="black" points="275.959,-2073.5 285.959,-2070 275.959,-2066.5 275.959,-2073.5"/>
</g>
<!-- 180.97.93.23 -->
<g id="node44" class="node"><title>180.97.93.23</title>
<ellipse fill="none" stroke="black" cx="89.692" cy="-2124" rx="72.2875" ry="18"/>
<text text-anchor="middle" x="89.692" y="-2120.3" font-family="Times,serif" font-size="14.00">180.97.93.23</text>
</g>
<!-- api.map.baidu.com -->
<g id="node45" class="node"><title>api.map.baidu.com</title>
<ellipse fill="none" stroke="black" cx="405.167" cy="-2124" rx="98.5829" ry="18"/>
<text text-anchor="middle" x="405.167" y="-2120.3" font-family="Times,serif" font-size="14.00">api.map.baidu.com</text>
</g>
<!-- 180.97.93.23&#45;&gt;api.map.baidu.com -->
<g id="edge40" class="edge"><title>180.97.93.23&#45;&gt;api.map.baidu.com</title>
<path fill="none" stroke="black" d="M162.217,-2124C201.78,-2124 251.751,-2124 295.994,-2124"/>
<polygon fill="black" stroke="black" points="296.221,-2127.5 306.221,-2124 296.221,-2120.5 296.221,-2127.5"/>
</g>
<!-- 118.112.11.251 -->
<g id="node48" class="node"><title>118.112.11.251</title>
<ellipse fill="none" stroke="black" cx="89.692" cy="-2205" rx="83.6854" ry="18"/>
<text text-anchor="middle" x="89.692" y="-2201.3" font-family="Times,serif" font-size="14.00">118.112.11.251</text>
</g>
<!-- imgcache.qq.com -->
<g id="node49" class="node"><title>imgcache.qq.com</title>
<ellipse fill="none" stroke="black" cx="405.167" cy="-2232" rx="92.8835" ry="18"/>
<text text-anchor="middle" x="405.167" y="-2228.3" font-family="Times,serif" font-size="14.00">imgcache.qq.com</text>
</g>
<!-- 118.112.11.251&#45;&gt;imgcache.qq.com -->
<g id="edge41" class="edge"><title>118.112.11.251&#45;&gt;imgcache.qq.com</title>
<path fill="none" stroke="black" d="M167.778,-2211.64C210.671,-2215.33 264.402,-2219.96 309.795,-2223.87"/>
<polygon fill="black" stroke="black" points="309.68,-2227.37 319.943,-2224.75 310.28,-2220.4 309.68,-2227.37"/>
</g>
<!-- qzonestyle.gtimg.cn -->
<g id="node50" class="node"><title>qzonestyle.gtimg.cn</title>
<ellipse fill="none" stroke="black" cx="405.167" cy="-2178" rx="104.782" ry="18"/>
<text text-anchor="middle" x="405.167" y="-2174.3" font-family="Times,serif" font-size="14.00">qzonestyle.gtimg.cn</text>
</g>
<!-- 118.112.11.251&#45;&gt;qzonestyle.gtimg.cn -->
<g id="edge42" class="edge"><title>118.112.11.251&#45;&gt;qzonestyle.gtimg.cn</title>
<path fill="none" stroke="black" d="M167.778,-2198.36C207.974,-2194.9 257.688,-2190.62 301.139,-2186.87"/>
<polygon fill="black" stroke="black" points="301.508,-2190.36 311.171,-2186.01 300.907,-2183.38 301.508,-2190.36"/>
</g>
<!-- 110.185.115.204 -->
<g id="node51" class="node"><title>110.185.115.204</title>
<ellipse fill="none" stroke="black" cx="89.692" cy="-2286" rx="89.8845" ry="18"/>
<text text-anchor="middle" x="89.692" y="-2282.3" font-family="Times,serif" font-size="14.00">110.185.115.204</text>
</g>
<!-- pingjs.qq.com -->
<g id="node52" class="node"><title>pingjs.qq.com</title>
<ellipse fill="none" stroke="black" cx="405.167" cy="-2286" rx="76.0865" ry="18"/>
<text text-anchor="middle" x="405.167" y="-2282.3" font-family="Times,serif" font-size="14.00">pingjs.qq.com</text>
</g>
<!-- 110.185.115.204&#45;&gt;pingjs.qq.com -->
<g id="edge43" class="edge"><title>110.185.115.204&#45;&gt;pingjs.qq.com</title>
<path fill="none" stroke="black" d="M179.683,-2286C223.336,-2286 275.671,-2286 318.824,-2286"/>
<polygon fill="black" stroke="black" points="319.017,-2289.5 329.017,-2286 319.017,-2282.5 319.017,-2289.5"/>
</g>
<!-- 14.17.43.114 -->
<g id="node53" class="node"><title>14.17.43.114</title>
<ellipse fill="none" stroke="black" cx="89.692" cy="-2340" rx="72.2875" ry="18"/>
<text text-anchor="middle" x="89.692" y="-2336.3" font-family="Times,serif" font-size="14.00">14.17.43.114</text>
</g>
<!-- tudg.qq.com -->
<g id="node54" class="node"><title>tudg.qq.com</title>
<ellipse fill="none" stroke="black" cx="405.167" cy="-2340" rx="69.5877" ry="18"/>
<text text-anchor="middle" x="405.167" y="-2336.3" font-family="Times,serif" font-size="14.00">tudg.qq.com</text>
</g>
<!-- 14.17.43.114&#45;&gt;tudg.qq.com -->
<g id="edge44" class="edge"><title>14.17.43.114&#45;&gt;tudg.qq.com</title>
<path fill="none" stroke="black" d="M162.217,-2340C210.82,-2340 275.129,-2340 325.23,-2340"/>
<polygon fill="black" stroke="black" points="325.373,-2343.5 335.373,-2340 325.373,-2336.5 325.373,-2343.5"/>
</g>
<!-- 183.3.226.92 -->
<g id="node55" class="node"><title>183.3.226.92</title>
<ellipse fill="none" stroke="black" cx="89.692" cy="-2394" rx="72.2875" ry="18"/>
<text text-anchor="middle" x="89.692" y="-2390.3" font-family="Times,serif" font-size="14.00">183.3.226.92</text>
</g>
<!-- pingtas.qq.com -->
<g id="node56" class="node"><title>pingtas.qq.com</title>
<ellipse fill="none" stroke="black" cx="405.167" cy="-2394" rx="82.5854" ry="18"/>
<text text-anchor="middle" x="405.167" y="-2390.3" font-family="Times,serif" font-size="14.00">pingtas.qq.com</text>
</g>
<!-- 183.3.226.92&#45;&gt;pingtas.qq.com -->
<g id="edge45" class="edge"><title>183.3.226.92&#45;&gt;pingtas.qq.com</title>
<path fill="none" stroke="black" d="M162.217,-2394C206.754,-2394 264.479,-2394 312.375,-2394"/>
<polygon fill="black" stroke="black" points="312.438,-2397.5 322.438,-2394 312.438,-2390.5 312.438,-2397.5"/>
</g>
<!-- 115.238.25.82 -->
<g id="node57" class="node"><title>115.238.25.82</title>
<ellipse fill="none" stroke="black" cx="89.692" cy="-2448" rx="77.9862" ry="18"/>
<text text-anchor="middle" x="89.692" y="-2444.3" font-family="Times,serif" font-size="14.00">115.238.25.82</text>
</g>
<!-- wykf.guahao.com -->
<g id="node58" class="node"><title>wykf.guahao.com</title>
<ellipse fill="none" stroke="black" cx="405.167" cy="-2448" rx="91.784" ry="18"/>
<text text-anchor="middle" x="405.167" y="-2444.3" font-family="Times,serif" font-size="14.00">wykf.guahao.com</text>
</g>
<!-- 115.238.25.82&#45;&gt;wykf.guahao.com -->
<g id="edge46" class="edge"><title>115.238.25.82&#45;&gt;wykf.guahao.com</title>
<path fill="none" stroke="black" d="M167.778,-2448C208.647,-2448 259.355,-2448 303.315,-2448"/>
<polygon fill="black" stroke="black" points="303.457,-2451.5 313.457,-2448 303.457,-2444.5 303.457,-2451.5"/>
</g>
<!-- 59.110.185.106 -->
<g id="node59" class="node"><title>59.110.185.106</title>
<ellipse fill="none" stroke="black" cx="89.692" cy="-2502" rx="83.6854" ry="18"/>
<text text-anchor="middle" x="89.692" y="-2498.3" font-family="Times,serif" font-size="14.00">59.110.185.106</text>
</g>
<!-- aikf.oss&#45;cn&#45;beijing.aliyuncs.com -->
<g id="node60" class="node"><title>aikf.oss&#45;cn&#45;beijing.aliyuncs.com</title>
<ellipse fill="none" stroke="black" cx="405.167" cy="-2502" rx="158.672" ry="18"/>
<text text-anchor="middle" x="405.167" y="-2498.3" font-family="Times,serif" font-size="14.00">aikf.oss&#45;cn&#45;beijing.aliyuncs.com</text>
</g>
<!-- 59.110.185.106&#45;&gt;aikf.oss&#45;cn&#45;beijing.aliyuncs.com -->
<g id="edge47" class="edge"><title>59.110.185.106&#45;&gt;aikf.oss&#45;cn&#45;beijing.aliyuncs.com</title>
<path fill="none" stroke="black" d="M173.875,-2502C193.213,-2502 214.483,-2502 236.042,-2502"/>
<polygon fill="black" stroke="black" points="236.301,-2505.5 246.301,-2502 236.3,-2498.5 236.301,-2505.5"/>
</g>
<!-- 118.112.252.254 -->
<g id="node62" class="node"><title>118.112.252.254</title>
<ellipse fill="none" stroke="black" cx="89.692" cy="-2556" rx="89.8845" ry="18"/>
<text text-anchor="middle" x="89.692" y="-2552.3" font-family="Times,serif" font-size="14.00">118.112.252.254</text>
</g>
<!-- at.alicdn.com -->
<g id="node63" class="node"><title>at.alicdn.com</title>
<ellipse fill="none" stroke="black" cx="405.167" cy="-2556" rx="73.387" ry="18"/>
<text text-anchor="middle" x="405.167" y="-2552.3" font-family="Times,serif" font-size="14.00">at.alicdn.com</text>
</g>
<!-- 118.112.252.254&#45;&gt;at.alicdn.com -->
<g id="edge48" class="edge"><title>118.112.252.254&#45;&gt;at.alicdn.com</title>
<path fill="none" stroke="black" d="M179.683,-2556C224.268,-2556 277.91,-2556 321.575,-2556"/>
<polygon fill="black" stroke="black" points="321.588,-2559.5 331.588,-2556 321.588,-2552.5 321.588,-2559.5"/>
</g>
<!-- 115.238.25.13 -->
<g id="node64" class="node"><title>115.238.25.13</title>
<ellipse fill="none" stroke="black" cx="89.692" cy="-2664" rx="77.9862" ry="18"/>
<text text-anchor="middle" x="89.692" y="-2660.3" font-family="Times,serif" font-size="14.00">115.238.25.13</text>
</g>
<!-- openapp.wy.guahao.com -->
<g id="node65" class="node"><title>openapp.wy.guahao.com</title>
<ellipse fill="none" stroke="black" cx="405.167" cy="-2718" rx="124.278" ry="18"/>
<text text-anchor="middle" x="405.167" y="-2714.3" font-family="Times,serif" font-size="14.00">openapp.wy.guahao.com</text>
</g>
<!-- 115.238.25.13&#45;&gt;openapp.wy.guahao.com -->
<g id="edge49" class="edge"><title>115.238.25.13&#45;&gt;openapp.wy.guahao.com</title>
<path fill="none" stroke="black" d="M145.152,-2676.67C166.925,-2681.51 192.275,-2686.85 215.384,-2691 243.246,-2696 273.555,-2700.68 301.569,-2704.68"/>
<polygon fill="black" stroke="black" points="301.385,-2708.19 311.777,-2706.13 302.366,-2701.26 301.385,-2708.19"/>
</g>
<!-- novonordisk&#45;tnbfxsczq.wy.guahao.com -->
<g id="node71" class="node"><title>novonordisk&#45;tnbfxsczq.wy.guahao.com</title>
<ellipse fill="none" stroke="black" cx="405.167" cy="-2664" rx="189.567" ry="18"/>
<text text-anchor="middle" x="405.167" y="-2660.3" font-family="Times,serif" font-size="14.00">novonordisk&#45;tnbfxsczq.wy.guahao.com</text>
</g>
<!-- 115.238.25.13&#45;&gt;novonordisk&#45;tnbfxsczq.wy.guahao.com -->
<g id="edge50" class="edge"><title>115.238.25.13&#45;&gt;novonordisk&#45;tnbfxsczq.wy.guahao.com</title>
<path fill="none" stroke="black" d="M167.778,-2664C179.552,-2664 192.142,-2664 205.152,-2664"/>
<polygon fill="black" stroke="black" points="205.176,-2667.5 215.176,-2664 205.176,-2660.5 205.176,-2667.5"/>
</g>
<!-- bendingthecurve.wy.guahao.com -->
<g id="node75" class="node"><title>bendingthecurve.wy.guahao.com</title>
<ellipse fill="none" stroke="black" cx="405.167" cy="-2610" rx="163.271" ry="18"/>
<text text-anchor="middle" x="405.167" y="-2606.3" font-family="Times,serif" font-size="14.00">bendingthecurve.wy.guahao.com</text>
</g>
<!-- 115.238.25.13&#45;&gt;bendingthecurve.wy.guahao.com -->
<g id="edge51" class="edge"><title>115.238.25.13&#45;&gt;bendingthecurve.wy.guahao.com</title>
<path fill="none" stroke="black" d="M145.152,-2651.33C166.925,-2646.49 192.275,-2641.15 215.384,-2637 239.013,-2632.76 264.402,-2628.75 288.658,-2625.19"/>
<polygon fill="black" stroke="black" points="289.219,-2628.65 298.612,-2623.74 288.212,-2621.72 289.219,-2628.65"/>
</g>
<!-- 47.52.213.174 -->
<g id="node73" class="node"><title>47.52.213.174</title>
<ellipse fill="none" stroke="black" cx="89.692" cy="-2772" rx="77.9862" ry="18"/>
<text text-anchor="middle" x="89.692" y="-2768.3" font-family="Times,serif" font-size="14.00">47.52.213.174</text>
</g>
<!-- w.c&#45;cnzz.com -->
<g id="node74" class="node"><title>w.c&#45;cnzz.com</title>
<ellipse fill="none" stroke="black" cx="405.167" cy="-2772" rx="72.2875" ry="18"/>
<text text-anchor="middle" x="405.167" y="-2768.3" font-family="Times,serif" font-size="14.00">w.c&#45;cnzz.com</text>
</g>
<!-- 47.52.213.174&#45;&gt;w.c&#45;cnzz.com -->
<g id="edge52" class="edge"><title>47.52.213.174&#45;&gt;w.c&#45;cnzz.com</title>
<path fill="none" stroke="black" d="M167.778,-2772C214.913,-2772 275.137,-2772 323,-2772"/>
<polygon fill="black" stroke="black" points="323.017,-2775.5 333.017,-2772 323.017,-2768.5 323.017,-2775.5"/>
</g>
<!-- 180.97.93.48 -->
<g id="node76" class="node"><title>180.97.93.48</title>
<ellipse fill="none" stroke="black" cx="89.692" cy="-2826" rx="72.2875" ry="18"/>
<text text-anchor="middle" x="89.692" y="-2822.3" font-family="Times,serif" font-size="14.00">180.97.93.48</text>
</g>
<!-- gsp0.baidu.com -->
<g id="node77" class="node"><title>gsp0.baidu.com</title>
<ellipse fill="none" stroke="black" cx="405.167" cy="-2826" rx="84.485" ry="18"/>
<text text-anchor="middle" x="405.167" y="-2822.3" font-family="Times,serif" font-size="14.00">gsp0.baidu.com</text>
</g>
<!-- 180.97.93.48&#45;&gt;gsp0.baidu.com -->
<g id="edge53" class="edge"><title>180.97.93.48&#45;&gt;gsp0.baidu.com</title>
<path fill="none" stroke="black" d="M162.217,-2826C206.072,-2826 262.714,-2826 310.167,-2826"/>
<polygon fill="black" stroke="black" points="310.456,-2829.5 320.456,-2826 310.456,-2822.5 310.456,-2829.5"/>
</g>
<!-- 220.170.181.137 -->
<g id="node78" class="node"><title>220.170.181.137</title>
<ellipse fill="none" stroke="black" cx="89.692" cy="-2880" rx="89.8845" ry="18"/>
<text text-anchor="middle" x="89.692" y="-2876.3" font-family="Times,serif" font-size="14.00">220.170.181.137</text>
</g>
<!-- dl.ntalker.com -->
<g id="node79" class="node"><title>dl.ntalker.com</title>
<ellipse fill="none" stroke="black" cx="405.167" cy="-2880" rx="77.1866" ry="18"/>
<text text-anchor="middle" x="405.167" y="-2876.3" font-family="Times,serif" font-size="14.00">dl.ntalker.com</text>
</g>
<!-- 220.170.181.137&#45;&gt;dl.ntalker.com -->
<g id="edge54" class="edge"><title>220.170.181.137&#45;&gt;dl.ntalker.com</title>
<path fill="none" stroke="black" d="M179.683,-2880C222.917,-2880 274.668,-2880 317.579,-2880"/>
<polygon fill="black" stroke="black" points="317.721,-2883.5 327.721,-2880 317.721,-2876.5 317.721,-2883.5"/>
</g>
<!-- 120.92.76.167 -->
<g id="node80" class="node"><title>120.92.76.167</title>
<ellipse fill="none" stroke="black" cx="89.692" cy="-2934" rx="77.9862" ry="18"/>
<text text-anchor="middle" x="89.692" y="-2930.3" font-family="Times,serif" font-size="14.00">120.92.76.167</text>
</g>
<!-- bj&#45;trail.ntalker.com -->
<g id="node81" class="node"><title>bj&#45;trail.ntalker.com</title>
<ellipse fill="none" stroke="black" cx="405.167" cy="-2934" rx="100.182" ry="18"/>
<text text-anchor="middle" x="405.167" y="-2930.3" font-family="Times,serif" font-size="14.00">bj&#45;trail.ntalker.com</text>
</g>
<!-- 120.92.76.167&#45;&gt;bj&#45;trail.ntalker.com -->
<g id="edge55" class="edge"><title>120.92.76.167&#45;&gt;bj&#45;trail.ntalker.com</title>
<path fill="none" stroke="black" d="M167.778,-2934C205.962,-2934 252.737,-2934 294.571,-2934"/>
<polygon fill="black" stroke="black" points="294.81,-2937.5 304.81,-2934 294.81,-2930.5 294.81,-2937.5"/>
</g>
</g>
</svg>
